<?xml version="1.0" encoding="UTF-8"?>
<!DOCTYPE svg PUBLIC "-//W3C//DTD SVG 1.1//EN" "http://www.w3.org/Graphics/SVG/1.1/DTD/svg11.dtd">
<!-- Creator: CorelDRAW 2019 (64-Bit) -->
<svg xmlns="http://www.w3.org/2000/svg" xml:space="preserve" width="212mm" height="212mm" version="1.1" style="shape-rendering:geometricPrecision; text-rendering:geometricPrecision; image-rendering:optimizeQuality; fill-rule:evenodd; clip-rule:evenodd"
viewBox="0 0 21200 21200"
 xmlns:xlink="http://www.w3.org/1999/xlink">
 <defs>
  <style type="text/css">
   <![CDATA[
    .fil4 {fill:#BC3B6F}
    .fil1 {fill:#C19744}
    .fil3 {fill:#E2BF13}
    .fil0 {fill:#EFA511}
    .fil5 {fill:#FC153B}
    .fil2 {fill:white}
   ]]>
  </style>
 </defs>
 <g id="Слой_x0020_1">
  <metadata id="CorelCorpID_0Corel-Layer"/>
  <g id="Layer_1">
   <g>
    <g>
     <path class="fil0" d="M2409.18 10928.13l-28.71 463.48c-32.81,541.41 16.41,824.41 221.48,1279.69 262.5,574.22 369.14,853.13 492.19,1304.3 196.88,709.57 299.41,881.84 849.02,1468.36 266.6,278.91 615.23,697.27 779.3,926.95 369.14,516.8 570.12,693.16 1086.91,959.77 340.43,172.27 418.36,200.98 463.48,155.86 24.61,-32.81 857.23,-1460.16 1845.7,-3174.61 984.38,-1714.45 1829.3,-3178.71 1874.41,-3252.54l82.03 -131.25 -3834.95 -0.01 -3830.86 0z"/>
     <path class="fil1" d="M1350.98 10271.87l426.56 0 -24.61 -525c-28.71,-635.74 36.91,-943.36 352.73,-1640.63 114.84,-254.3 291.21,-742.38 397.85,-1086.91 102.54,-344.53 246.09,-730.08 315.82,-865.43 73.83,-139.45 315.82,-438.87 574.22,-717.77 246.09,-258.4 631.64,-721.88 857.23,-1021.29 467.58,-627.54 697.27,-824.41 1263.28,-1103.32 213.28,-102.54 393.75,-192.77 401.95,-200.98 20.51,-12.3 -365.04,-664.45 -418.36,-709.57 -77.93,-61.52 -205.08,-82.03 -291.21,-45.12 -192.77,73.83 -959.77,693.16 -1423.24,1140.23 -1562.7,1517.58 -2559.38,3416.6 -2899.8,5524.8 -135.35,836.72 -143.55,1017.19 -41.02,1140.23 82.03,106.66 98.44,110.76 508.6,110.76z"/>
     <path class="fil1" d="M6490.23 2766.02c16.41,0 123.05,-65.63 233.79,-147.66 582.42,-414.26 988.48,-557.81 1853.91,-652.15 344.53,-32.81 783.4,-114.84 1066.41,-192.77 418.36,-110.74 549.61,-127.15 976.17,-127.15 422.46,0 557.81,16.41 972.07,127.15 274.8,73.83 725.98,159.96 1045.9,192.77 918.75,98.44 1148.44,172.27 1759.57,574.22 188.67,123.05 352.73,225.59 360.94,225.59 53.32,0 393.75,-664.45 393.75,-766.99 0,-196.88 -127.15,-278.91 -951.56,-602.93 -853.13,-336.33 -1845.7,-557.81 -2838.28,-639.84 -1640.63,-131.25 -3322.27,168.16 -4843.95,861.33 -352.73,159.96 -430.66,225.59 -430.66,377.34 -0.01,110.73 344.52,771.09 401.94,771.09z"/>
     <path class="fil1" d="M5509.96 17884.38c-578.32,-287.11 -791.6,-475.78 -1271.48,-1115.63 -229.69,-307.62 -611.13,-766.99 -853.13,-1017.19 -258.4,-270.7 -488.09,-561.91 -566.02,-705.47 -69.73,-131.25 -213.28,-520.9 -315.82,-865.43 -106.64,-344.53 -283.01,-832.62 -397.85,-1086.91 -315.82,-697.27 -381.45,-1004.88 -352.73,-1644.73l24.61 -520.9 -426.56 0.01c-410.16,0 -426.56,4.1 -508.59,110.74 -102.54,123.05 -94.34,303.52 41.02,1152.54 401.95,2473.24 1800.59,4786.52 3806.25,6295.9 500.39,377.34 586.52,418.36 734.18,348.63 90.23,-45.12 533.2,-717.77 492.19,-746.48 -4.12,-8.21 -188.69,-98.44 -406.07,-205.08z"/>
     <path class="fil0" d="M8860.53 7241.64c81.62,0.41 163.24,32.81 221.89,105.82 49.22,65.63 414.26,672.66 808.01,1357.62 397.85,684.96 734.18,1230.47 750.59,1209.96 20.51,-16.41 857.23,-1464.26 1866.21,-3211.52 1008.98,-1747.26 1858.01,-3219.73 1890.82,-3273.05 57.42,-86.13 49.22,-98.44 -340.43,-352.73 -557.81,-360.94 -594.73,-373.24 -1755.47,-516.8 -200.98,-24.61 -582.42,-98.44 -840.82,-168.16 -467.58,-118.95 -910.55,-172.27 -1107.42,-131.25 -57.42,8.2 -315.82,73.83 -582.42,139.45 -262.5,65.63 -656.25,139.45 -881.84,164.06 -1066.41,123.05 -1255.08,180.47 -1804.69,570.12l-295.31 209.18 455.27 787.5c250.2,434.77 619.34,1070.51 816.21,1415.04 353.14,603.75 426.56,791.19 322.38,925.72l477.02 769.04z"/>
     <path class="fil0" d="M8095.18 6609.18c-48.4,-13.13 -98.44,-47.17 -157.09,-102.54 -61.52,-61.52 -455.27,-701.37 -865.43,-1423.24 -414.26,-721.88 -771.09,-1337.11 -799.8,-1365.82 -41.02,-45.12 -127.15,-16.41 -467.58,155.86 -508.59,254.3 -705.47,426.56 -1086.91,963.87 -159.96,225.59 -504.49,635.74 -766.99,910.55 -262.5,278.91 -520.9,590.63 -582.42,701.37 -57.42,106.64 -164.06,397.85 -233.79,643.95 -164.06,578.32 -213.28,725.98 -459.38,1271.48 -278.91,619.34 -332.23,881.84 -299.41,1398.63 16.41,229.69 41.02,438.87 57.42,463.48 20.51,32.81 1029.49,41.02 3826.76,36.91l3798.05 -12.3 -754.69 -1304.3c-479.88,-828.52 -754.69,-1349.41 -754.69,-1419.14 0,-28.3 4.1,-54.96 11.89,-79.98l-465.94 -838.78z"/>
     <path class="fil1" d="M7689.94 19046.76c-173.09,7.38 -432.3,-117.3 -844.1,-389.24 -184.57,-123.05 -344.53,-225.59 -356.84,-225.59 -53.32,0 -397.85,664.45 -397.85,771.09 0,159.96 77.93,221.48 553.71,430.66 2518.36,1111.52 5418.16,1111.52 7952.93,4.1 475.78,-209.18 557.81,-274.8 557.81,-438.87 0,-118.95 -344.53,-766.99 -401.95,-766.99 -16.41,0 -123.05,65.63 -233.79,147.66 -582.42,414.26 -988.48,557.81 -1853.91,652.15 -344.53,32.81 -787.5,114.84 -1066.41,188.67 -701.37,188.67 -1211.19,168.57 -1960.55,4.1 -292.44,-63.98 -586.52,-147.66 -652.15,-164.06 -57.42,-14.77 -109.92,-45.94 -153.4,-87.36 -367.91,80.39 -816.62,77.93 -1142.7,-125.92l-0.8 -0.4z"/>
     <path class="fil0" d="M8867.91 18711.66c49.22,-41.84 103.36,-69.32 148.89,-69.32 45.12,0 360.94,65.63 701.37,147.66 799.8,192.77 1013.09,192.77 1808.79,0 340.43,-77.93 820.31,-164.06 1066.41,-188.67 779.3,-73.83 976.17,-139.45 1554.49,-533.2 299.41,-200.98 307.62,-213.28 254.3,-299.41 -32.81,-49.22 -881.84,-1521.68 -1890.82,-3268.95 -1008.98,-1747.27 -1845.7,-3195.12 -1866.21,-3211.52 -16.41,-20.51 -102.54,90.23 -192.77,246.09 -192.77,328.13 -3092.58,5344.34 -3428.91,5930.86l-229.69 397.85 295.31 200.98c164.06,106.64 410.16,254.3 549.61,328.13 176.37,88.18 282.19,171.45 321.97,260.04l907.26 59.46z"/>
     <path class="fil0" d="M18224.39 10482.29c11.48,-49.22 26.25,-68.09 45.53,-87.36 86.13,-86.13 176.37,-114.84 410.16,-131.25l143.55 -12.3 32.81 -369.14c49.22,-627.54 0,-857.23 -352.73,-1648.83 -106.64,-229.69 -258.4,-652.15 -340.43,-939.26 -241.99,-849.02 -295.31,-943.36 -935.16,-1611.91 -229.69,-237.89 -525,-590.63 -660.35,-783.4 -381.45,-545.51 -639.84,-779.3 -1119.73,-1021.29 -229.69,-114.84 -426.56,-209.18 -438.87,-209.18 -28.71,0 -32.81,8.2 -1886.72,3219.73 -963.87,1669.34 -1796.48,3113.09 -1849.8,3207.42l-102.54 176.37 3178.71 8.2c3055.66,12.3 3178.71,16.41 3260.74,90.23 20.92,18.87 38.55,42.25 52.09,68.5l562.74 43.47z"/>
     <path class="fil1" d="M18462.7 4611.72c-512.7,-689.06 -1398.63,-1546.29 -2128.71,-2063.09 -311.72,-221.48 -389.65,-246.09 -520.9,-180.47 -86.13,41.02 -525,713.67 -488.09,746.48 8.2,8.2 139.45,69.73 291.21,139.45 389.65,172.27 812.11,463.48 1013.09,689.06 90.23,106.64 295.31,369.14 447.07,582.42 155.86,217.38 496.29,623.44 758.79,902.34 557.81,594.73 680.86,816.21 922.85,1644.73 90.23,303.52 258.4,766.99 373.24,1025.39 319.92,701.37 385.55,1013.09 356.84,1648.83l-24.61 525 426.56 0.01c414.26,0 426.56,-4.1 512.7,-110.74 77.93,-98.44 82.03,-143.55 61.52,-381.45 -188.67,-1923.63 -849.03,-3625.77 -2001.56,-5167.96z"/>
    </g>
    <g>
     <path class="fil2" d="M9492.58 161.52c-947.46,102.54 -1853.91,328.13 -2731.64,676.76 -734.18,287.11 -992.58,438.87 -1144.34,664.45 -114.84,176.37 -135.35,184.57 -352.73,205.08 -291.21,28.71 -385.55,77.93 -972.07,520.9 -2337.89,1771.88 -3851.37,4483.01 -4117.97,7370.51l-49.22 537.3 114.84 233.79 110.74 229.69 -110.74 229.69 -114.84 233.79 49.22 537.3c180.47,1985.16 984.38,3962.11 2255.86,5561.72 447.07,561.91 1263.28,1357.62 1841.6,1792.38 611.13,459.38 701.37,508.59 992.58,537.3 217.38,20.51 233.79,28.71 356.84,209.18 102.54,155.86 188.67,221.48 500.39,381.45 1800.58,906.45 4232.81,1234.57 6365.62,849.03 1291.99,-229.69 2854.69,-828.52 3121.29,-1193.55 155.86,-221.48 213.28,-504.49 147.66,-758.79 -32.81,-118.95 -914.65,-1685.74 -2300.98,-4093.36 -1238.67,-2145.12 -2259.96,-3908.79 -2268.16,-3929.3 -8.2,-16.41 721.88,-28.71 1624.22,-28.71l1640.62 0 12.3 1013.09c12.3,951.56 16.41,1029.49 102.54,1181.25 102.54,192.77 303.52,393.75 504.49,496.29 196.88,106.64 742.38,106.64 931.05,4.1 418.36,-225.59 627.54,-570.12 627.54,-1037.7 0,-229.69 16.41,-303.52 73.83,-356.84 94.34,-86.13 147.66,-86.13 229.69,-4.1 57.42,53.32 65.63,229.69 65.63,1287.89l0 1222.27 114.84 217.38c278.91,537.3 996.68,648.05 1423.24,225.59 94.34,-94.34 188.67,-241.99 217.38,-336.33 36.91,-123.05 49.22,-680.86 49.22,-2042.58l0 -1870.31 652.15 0c762.89,0 1033.59,-41.02 1255.08,-196.88 213.28,-147.66 389.65,-483.98 389.65,-750.59 0,-237.89 -102.54,-1054.1 -188.67,-1472.46 -520.9,-2583.98 -2104.1,-4999.8 -4269.73,-6509.18 -324.02,-225.59 -504.49,-295.31 -750.59,-299.41 -123.05,-4.1 -159.96,-28.71 -266.6,-192.77 -147.66,-229.69 -393.75,-373.24 -1127.93,-664.45 -1591.4,-627.55 -3338.67,-865.44 -5003.9,-680.87zm1870.31 594.73c992.58,82.03 1985.16,303.52 2838.28,639.84 824.41,324.02 951.56,406.05 951.56,602.93 0,102.54 -340.43,766.99 -393.75,766.99 -8.2,0 -172.27,-102.54 -360.94,-225.59 -611.13,-401.95 -840.82,-475.78 -1759.57,-574.22 -319.92,-32.81 -771.09,-118.95 -1045.9,-192.77 -414.26,-110.74 -549.61,-127.15 -972.07,-127.15 -426.56,0 -557.81,16.41 -976.17,127.15 -283.01,77.93 -721.88,159.96 -1066.41,192.77 -865.43,94.34 -1271.48,237.89 -1853.91,652.15 -110.74,82.03 -217.38,147.66 -233.79,147.66 -57.42,0 -401.95,-660.35 -401.95,-771.09 0,-151.76 77.93,-217.38 430.66,-377.34 1521.69,-693.17 3203.34,-992.58 4843.96,-861.33zm-3289.04 5845.96c77.93,30.76 149.71,8.2 245.68,-66.86 184.57,-147.66 151.76,-287.11 -258.4,-988.48 -196.88,-344.53 -566.02,-980.27 -816.21,-1415.04l-455.27 -787.5 295.31 -209.18c549.61,-389.65 738.28,-447.07 1804.69,-570.12 225.59,-24.61 619.34,-98.44 881.84,-164.06 266.6,-65.63 525,-131.25 582.42,-139.45 196.88,-41.02 639.84,12.3 1107.42,131.25 258.4,69.73 639.84,143.55 840.82,168.16 1160.74,143.55 1197.66,155.86 1755.47,516.8 389.65,254.3 397.85,266.6 340.43,352.73 -32.81,53.32 -881.84,1525.78 -1890.82,3273.05 -1008.98,1747.27 -1845.7,3195.12 -1866.21,3211.52 -16.41,20.51 -352.73,-525 -750.59,-1209.96 -393.75,-684.96 -758.79,-1291.99 -808.01,-1357.62 -168.16,-209.18 -533.2,-86.13 -533.2,180.47 0,69.73 274.8,590.63 754.69,1419.14l754.69 1304.3 -3798.05 12.3c-2797.27,4.1 -3806.25,-4.1 -3826.76,-36.91 -16.41,-24.61 -41.02,-233.79 -57.42,-463.48 -32.81,-516.8 20.51,-779.3 299.41,-1398.63 246.09,-545.51 295.31,-693.16 459.38,-1271.48 69.73,-246.09 176.37,-537.3 233.79,-643.95 61.52,-110.74 319.92,-422.46 582.42,-701.37 262.5,-274.8 607.03,-684.96 766.99,-910.55 381.45,-537.3 578.32,-709.57 1086.91,-963.87 340.43,-172.27 426.56,-200.98 467.58,-155.86 28.71,28.71 385.55,643.95 799.8,1365.82 410.16,721.88 803.91,1361.72 865.43,1423.24 50.04,47.19 93.93,79.18 135.77,95.59l0 0zm-2576.19 -4201.23c53.32,45.12 438.87,697.27 418.36,709.57 -8.2,8.2 -188.67,98.44 -401.95,200.98 -566.02,278.91 -795.7,475.78 -1263.28,1103.32 -225.59,299.41 -611.13,762.89 -857.23,1021.29 -258.4,278.91 -500.39,578.32 -574.22,717.77 -69.73,135.35 -213.28,520.9 -315.82,865.43 -106.64,344.53 -283.01,832.62 -397.85,1086.91 -315.82,697.27 -381.45,1004.88 -352.73,1640.63l24.61 525 -426.57 -0.01c-410.16,0 -426.56,-4.1 -508.59,-110.74 -102.54,-123.05 -94.34,-303.52 41.02,-1140.23 340.43,-2108.2 1337.11,-4007.23 2899.8,-5524.8 463.48,-447.07 1230.47,-1066.41 1423.24,-1140.23 86.13,-36.92 213.28,-16.42 291.21,45.11zm10836.32 147.65c730.08,516.8 1616.02,1374.02 2128.71,2063.09 1152.54,1542.19 1812.89,3244.34 2001.56,5167.97 20.51,237.89 16.41,283.01 -61.52,381.45 -86.13,106.64 -98.44,110.74 -512.7,110.74l-426.55 -0.01 24.61 -525c28.71,-635.74 -36.91,-947.46 -356.84,-1648.83 -114.84,-258.4 -283.01,-721.88 -373.24,-1025.39 -241.99,-828.52 -365.04,-1050 -922.85,-1644.73 -262.5,-278.91 -602.93,-684.96 -758.79,-902.34 -151.76,-213.28 -356.84,-475.78 -447.07,-582.42 -200.98,-225.59 -623.44,-516.8 -1013.09,-689.06 -151.76,-69.73 -283.01,-131.25 -291.21,-139.45 -36.91,-32.81 401.95,-705.47 488.09,-746.48 131.25,-65.63 209.18,-41.02 520.89,180.46zm-885.93 1328.91c479.88,241.99 738.28,475.78 1119.73,1021.29 135.35,192.77 430.66,545.51 660.35,783.4 639.84,668.55 693.16,762.89 935.16,1611.91 82.03,287.11 233.79,709.57 340.43,939.26 352.73,791.6 401.95,1021.29 352.73,1648.83l-32.81 369.14 -143.55 12.3c-233.79,16.41 -324.02,45.12 -410.16,131.25 -77.93,77.93 -82.03,147.66 -82.03,2169.73l0 2091.8 -106.64 82.03c-143.55,110.74 -241.99,106.64 -365.04,-16.41l-102.54 -98.44 0 -1234.57c0,-1132.03 -8.2,-1246.88 -77.93,-1386.33 -98.44,-192.77 -229.69,-315.82 -422.46,-397.85 -287.11,-118.95 -623.44,-45.12 -853.13,184.57 -172.27,172.27 -246.09,389.65 -246.09,713.67 0,278.91 -77.93,451.17 -246.09,537.3 -151.76,77.93 -299.41,77.93 -451.17,0 -225.59,-118.95 -246.09,-213.28 -246.09,-1205.86l0 -902.34 1226.37 -12.3c1140.23,-12.3 1230.47,-16.41 1312.5,-90.23 118.95,-106.64 118.95,-352.73 0,-459.38 -82.03,-73.83 -205.08,-77.93 -3260.74,-90.23l-3178.71 -8.2 102.54 -176.37c53.32,-94.34 885.94,-1538.09 1849.8,-3207.42 1853.91,-3211.52 1858.01,-3219.73 1886.72,-3219.73 12.28,0 209.16,94.34 438.85,209.18zm-13695.12 7571.48c-28.71,639.84 36.91,947.46 352.73,1644.73 114.84,254.3 291.21,742.38 397.85,1086.91 102.54,344.53 246.09,734.18 315.82,865.43 77.93,143.55 307.62,434.77 566.02,705.47 241.99,250.2 623.44,709.57 853.13,1017.19 479.88,639.84 693.16,828.52 1271.48,1115.63 217.38,106.64 401.95,196.88 406.05,205.08 41.02,28.71 -401.95,701.37 -492.19,746.48 -147.66,69.73 -233.79,28.71 -734.18,-348.63 -2005.66,-1509.38 -3404.3,-3822.66 -3806.25,-6295.9 -135.35,-849.02 -143.55,-1029.49 -41.02,-1152.54 82.03,-106.64 98.44,-110.74 508.59,-110.74l426.58 0 -24.61 520.89zm8240.04 -389.64c-45.12,73.83 -890.04,1538.09 -1874.41,3252.54 -988.48,1714.45 -1821.09,3141.8 -1845.7,3174.61 -45.12,45.12 -123.05,16.41 -463.48,-155.86 -516.8,-266.6 -717.77,-442.97 -1086.91,-959.77 -164.06,-229.69 -512.7,-648.05 -779.3,-926.95 -549.61,-586.52 -652.15,-758.79 -849.02,-1468.36 -123.05,-451.17 -229.69,-730.08 -492.19,-1304.3 -205.08,-455.27 -254.3,-738.28 -221.48,-1279.69l28.71 -463.48 3830.85 0.01 3834.96 0 -82.03 131.25zm2514.26 3437.1c1008.98,1747.27 1858.01,3219.73 1890.82,3268.95 53.32,86.13 45.12,98.44 -254.3,299.41 -578.32,393.75 -775.2,459.38 -1554.49,533.2 -246.09,24.61 -725.98,110.74 -1066.41,188.67 -795.7,192.77 -1008.98,192.77 -1808.79,0 -340.43,-82.03 -656.25,-147.66 -701.37,-147.66 -102.54,0 -250.2,139.45 -283.01,270.7 -36.91,135.35 94.34,311.72 254.3,352.73 65.63,16.41 360.94,90.23 652.15,164.06 738.28,184.57 1259.18,184.57 1960.55,-4.1 278.91,-73.83 721.88,-155.86 1066.41,-188.67 865.43,-94.34 1271.48,-237.89 1853.91,-652.15 110.74,-82.03 217.38,-147.66 233.79,-147.66 57.42,0 401.95,648.05 401.95,766.99 0,164.06 -82.03,229.69 -557.81,438.87 -2534.77,1107.42 -5434.57,1107.42 -7952.93,-4.1 -475.78,-209.18 -553.71,-270.7 -553.71,-430.66 0,-106.64 344.53,-771.09 397.85,-771.09 12.3,0 172.27,102.54 356.84,225.59 615.64,408.93 890.86,489.73 1045.9,283.01 172.27,-217.38 98.44,-377.34 -254.3,-553.71 -139.45,-73.83 -385.55,-221.48 -549.61,-328.13l-295.31 -200.98 229.69 -397.85c336.33,-586.52 3236.13,-5602.73 3428.91,-5930.86 90.23,-155.86 176.37,-266.6 192.77,-246.09 20.49,16.42 857.21,1464.27 1866.2,3211.53z"/>
    </g>
    <path class="fil3" d="M7960.64 18651.78c40.2,88.59 14.36,182.11 -71.78,290.8 -51.68,66.45 -112.38,105.82 -197.7,109.51l0.82 0.41c326.07,203.85 774.38,205.9 1141.88,125.51 -77.52,-73.83 -123.87,-178.42 -100.08,-264.96 18.46,-73.01 72.19,-148.89 134.12,-201.39l-907.26 -59.88z"/>
    <path class="fil3" d="M17661.66 10438.81c63.16,121.41 45.53,303.11 -52.09,390.88 -82.03,73.83 -172.27,77.93 -1312.5,90.23l-1226.37 12.3 0 902.34c0,992.58 20.51,1086.91 246.09,1205.86 151.76,77.93 299.41,77.93 451.17,0 168.16,-86.13 246.09,-258.4 246.09,-537.3 0,-324.02 73.83,-541.41 246.09,-713.67 229.69,-229.69 566.02,-303.52 853.13,-184.57 192.77,82.03 324.02,205.08 422.46,397.85 69.73,139.45 77.93,254.3 77.93,1386.33l0 1234.57 102.54 98.44c123.05,123.05 221.48,127.15 365.04,16.41l106.64 -82.03 0 -2091.8c0,-1516.76 2.46,-1935.12 36.5,-2082.36l-562.72 -43.48z"/>
    <path class="fil3" d="M8383.52 6472.6c-16.82,21.74 -38.14,42.25 -63.98,62.75 -87.36,67.68 -154.22,92.7 -224.36,73.83l465.53 838.77c50.86,-105.41 184.57,-206.72 299.82,-206.31l-477.01 -769.04z"/>
    <path class="fil4" d="M8967.58 2725c-1345.31,483.98 -1357.62,2370.7 -20.51,2871.09 336.33,127.15 840.82,106.64 1168.95,-49.22 914.65,-426.56 1164.84,-1628.32 496.29,-2374.8 -106.64,-114.84 -258.4,-254.3 -340.43,-303.52 -356.84,-225.58 -910.55,-287.1 -1304.3,-143.55z"/>
    <path class="fil2" d="M12380.08 3008.01c-348.63,159.96 -598.83,615.23 -529.1,976.17 135.35,738.28 959.77,1029.49 1513.48,537.3 344.53,-299.41 410.16,-771.09 164.06,-1168.95 -229.69,-369.13 -746.49,-524.99 -1148.44,-344.52z"/>
    <path class="fil2" d="M5649.41 4505.08c-246.09,77.93 -406.05,209.18 -533.2,426.56 -94.34,159.96 -114.84,241.99 -114.84,459.38 4.1,164.06 28.71,311.72 69.73,389.65 373.24,697.27 1353.52,672.66 1677.54,-41.02 315.81,-684.96 -381.45,-1468.36 -1099.23,-1234.57z"/>
    <path class="fil2" d="M10394.92 6330.27c-303.52,94.34 -479.88,250.2 -611.13,537.3 -147.66,324.02 -94.34,660.35 155.86,947.46 344.53,406.05 922.85,434.77 1312.5,65.63 373.24,-356.84 389.65,-902.34 36.91,-1283.79 -229.68,-250.19 -594.72,-356.83 -894.14,-266.6z"/>
    <path class="fil4" d="M6420.51 6851.17c-377.34,135.35 -684.96,410.16 -877.73,775.2 -118.95,229.69 -131.25,274.8 -131.25,656.25 0,381.45 8.2,430.66 131.25,680.86 159.96,324.02 418.36,574.22 742.38,725.98 200.98,94.34 287.11,110.74 623.44,110.74 336.33,0 422.46,-16.41 623.44,-110.74 324.02,-151.76 582.42,-401.95 742.38,-725.98 123.05,-250.2 131.25,-299.41 131.25,-680.86 0,-496.29 -73.83,-689.06 -393.75,-1025.39 -307.62,-328.13 -574.22,-442.97 -1037.7,-459.38 -266.6,-8.2 -426.56,4.1 -553.71,53.32z"/>
    <path class="fil2" d="M3401.76 8253.91c-332.23,159.96 -512.7,459.38 -512.7,849.02 0,283.01 102.54,492.19 332.23,689.06 344.53,299.41 812.11,291.21 1160.74,-16.41 459.38,-406.05 410.16,-1119.73 -102.54,-1460.16 -225.58,-147.65 -631.64,-176.36 -877.73,-61.51z"/>
    <path class="fil2" d="M15275.78 4775.78c-750.59,131.25 -1013.09,1082.81 -434.77,1587.3 406.05,360.94 1058.2,266.6 1365.82,-196.88 131.25,-196.88 172.27,-557.81 94.34,-795.7 -135.35,-406.05 -586.52,-668.55 -1025.39,-594.72z"/>
    <path class="fil4" d="M16005.86 6920.9c-422.46,159.96 -746.48,451.17 -931.05,844.92 -90.23,196.88 -106.64,283.01 -106.64,619.34 0,336.33 16.41,422.46 110.74,623.44 139.45,303.52 438.87,598.83 750.59,754.69 221.48,106.64 287.11,118.95 635.74,118.95 336.33,0 422.46,-16.41 623.44,-110.74 1181.25,-553.71 1205.86,-2198.44 45.12,-2764.45 -192.77,-94.34 -299.41,-118.95 -602.93,-127.15 -242,-8.22 -426.57,8.19 -525.01,41z"/>
    <path class="fil2" d="M13073.24 8020.12c-319.92,155.86 -504.49,455.27 -504.49,816.21 0,980.27 1291.99,1263.28 1739.06,381.45 90.23,-176.37 82.03,-561.91 -12.3,-771.09 -82.03,-184.57 -283.01,-373.24 -483.98,-459.38 -200.98,-82.04 -537.31,-65.63 -738.29,32.81z"/>
    <path class="fil2" d="M7015.23 11100.39c-217.38,57.42 -537.3,373.24 -594.73,586.52 -102.54,373.24 -16.41,701.37 246.09,951.56 389.65,369.14 967.97,340.43 1316.6,-65.63 430.66,-504.49 225.59,-1238.67 -406.05,-1464.26 -180.46,-61.51 -340.42,-65.61 -561.91,-8.19z"/>
    <path class="fil2" d="M3742.19 11547.46c-82.03,24.61 -225.59,110.74 -319.92,192.77 -754.69,643.95 -86.13,1845.7 865.43,1562.7 545.51,-164.06 808.01,-844.92 508.59,-1333.01 -221.49,-356.83 -660.35,-533.2 -1054.1,-422.46z"/>
    <path class="fil4" d="M5407.42 13134.77c-709.57,254.3 -1148.44,1000.78 -1000.78,1718.55 102.54,488.09 410.16,890.04 853.13,1107.42 209.18,102.54 278.91,114.84 643.95,114.84 360.94,0 438.87,-12.3 643.95,-110.74 963.87,-451.17 1185.35,-1714.45 434.77,-2465.04 -287.11,-287.11 -582.42,-410.16 -1017.19,-426.56 -258.41,-12.3 -401.97,4.1 -557.83,61.53z"/>
    <path class="fil2" d="M10251.37 12810.74c-459.38,213.28 -668.55,746.48 -467.58,1193.55 102.54,229.69 217.38,352.73 414.26,455.27 578.32,295.31 1267.38,-73.83 1333.01,-721.88 69.72,-689.05 -656.26,-1218.15 -1279.69,-926.94z"/>
    <path class="fil4" d="M9225.98 15058.4c-422.46,151.76 -738.28,451.17 -935.16,873.63 -65.63,143.55 -86.13,270.7 -86.13,574.22 -4.1,336.33 12.3,418.36 106.64,623.44 143.55,311.72 385.55,566.02 697.27,734.18 246.09,135.35 278.91,139.45 689.06,139.45 385.55,0 455.27,-12.3 656.25,-110.74 447.07,-221.48 799.8,-693.16 857.23,-1148.44 86.13,-697.27 -262.5,-1333.01 -890.04,-1624.22 -307.62,-139.45 -795.71,-168.16 -1095.12,-61.52z"/>
    <path class="fil2" d="M12220.12 16284.77c-586.52,319.92 -713.67,988.48 -278.91,1456.05 200.98,217.38 373.24,291.21 664.45,291.21 352.73,0 668.55,-200.98 824.41,-525 127.15,-258.4 102.54,-635.74 -53.32,-873.63 -180.47,-270.7 -397.85,-389.65 -742.38,-406.05 -209.17,-8.21 -324.02,8.2 -414.25,57.42z"/>
    <path class="fil5" d="M10833.79 13442.38c172.27,172.27 36.91,479.88 -209.18,479.88 -135.35,0 -233.79,-73.83 -283.01,-217.38 -36.91,-94.34 69.73,-303.52 164.06,-328.13 98.44,-28.7 266.61,8.21 328.13,65.63z"/>
    <path class="fil5" d="M12810.74 16941.02c49.22,61.52 63.57,139.86 63.57,180.88 0,41.02 -14.36,118.54 -63.57,180.06 -168.16,217.38 -488.09,86.13 -488.09,-196.88 0.01,-262.5 324.03,-369.14 488.09,-164.06z"/>
    <path class="fil5" d="M7491.02 11777.15c73.83,65.63 98.44,278.91 41.02,365.04 -57.42,86.13 -213.28,139.45 -315.82,114.84 -217.38,-53.32 -283.01,-324.02 -118.95,-483.98 82.03,-86.14 299.41,-82.03 393.75,4.1z"/>
    <path class="fil5" d="M4209.77 12228.32c114.84,102.54 98.44,315.82 -36.91,422.46 -131.25,102.54 -283.01,82.03 -393.75,-53.32 -90.23,-102.54 -65.63,-307.62 41.02,-389.65 98.42,-69.72 299.4,-61.52 389.64,20.51z"/>
    <path class="fil5" d="M3984.18 8885.55c188.67,176.37 65.63,483.98 -192.77,483.98 -254.3,0 -377.34,-291.21 -196.88,-479.88 110.74,-118.95 266.6,-118.95 389.65,-4.1z"/>
    <path class="fil5" d="M10887.11 7109.57c94.34,237.89 -147.66,475.78 -381.45,369.14 -135.35,-61.52 -200.98,-237.89 -135.35,-369.14 110.74,-225.59 422.46,-225.59 516.8,0z"/>
    <path class="fil5" d="M6108.79 5185.94c106.64,118.95 98.44,324.02 -16.41,418.36 -192.77,155.86 -467.58,32.81 -467.58,-205.08 0,-172.27 114.84,-295.31 278.91,-295.31 77.93,0 159.96,32.81 205.08,82.03z"/>
    <path class="fil5" d="M12929.69 3615.04c131.25,110.74 151.76,262.5 49.22,393.75 -168.16,213.28 -492.19,110.74 -492.19,-155.86 0,-262.5 254.3,-397.85 442.97,-237.89z"/>
    <path class="fil5" d="M13663.87 8639.45c188.67,176.37 65.63,483.98 -192.77,483.98 -254.3,0 -377.34,-291.21 -196.88,-479.88 110.74,-118.94 266.6,-118.94 389.65,-4.1z"/>
    <path class="fil5" d="M15632.62 5481.25c118.95,110.74 118.95,233.79 8.2,377.34 -164.06,205.08 -488.09,86.13 -488.09,-180.47 0,-254.29 291.22,-377.34 479.89,-196.87z"/>
   </g>
  </g>
 </g>
</svg>
