<?xml version="1.0" encoding="utf-8"?>
<!-- Generator: Adobe Illustrator 22.1.0, SVG Export Plug-In . SVG Version: 6.00 Build 0)  -->
<svg version="1.1" xmlns="http://www.w3.org/2000/svg" xmlns:xlink="http://www.w3.org/1999/xlink" x="0px" y="0px"
	 viewBox="0 0 1500 1500" style="enable-background:new 0 0 1500 1500;" xml:space="preserve">
<style type="text/css">
	.st0{fill:#A1D1D6;}
	.st1{fill:#69A1BC;}
	.st2{fill:#DD4C36;}
	.st3{fill:#FFFFFF;}
</style>
<g id="Layer_2">
	<rect width="1500" height="1500"/>
</g>
<g id="Layer_1">
	<g transform="translate(0.000000,1500.000000) scale(0.100000,-0.100000)">
		<path class="st0" d="M4469,3365l-195-298c-282-433-299-472-299-697c0-106,4-147,19-190c55-162,143-265,282-332l89-43h145
			c139,0,148,2,221,31c102,41,204,110,276,187c33,35,140,188,243,347c102,155,188,287,191,292L4469,3365z"/>
		<path class="st0" d="M10165,2669.1c1-2,87-134.1,191-294.1c106-162,215-317,248-352c71-77,173-146,275-187c73-30,82-31,222-31h146
			l87,43c156,78,253,203,292,378c32,147,7,338-63,479c-14,28-115,188-224,356l-199,306L10165,2669.1z"/>
		<path class="st1" d="M5441,2662c3,5,89-31,190-81c541-263,1091-418,1709-483c164-17,774-17,930,0c641,71,1166,219,1709,483
			c101,50,185,89.1,186,88.1l975,697.9l136,134c409,405,748,879,994,1392c266,556,420,1135,471,1770c15,198,7,725-15,907
			c-57,469-158,870-323,1290c-57,144-219,481-302,625c-76,132-390,580-390,580c-211,295-526,637.5-890,889c-6,4-983,612-1413,756
			l-98,33c-487.8,0.3-965.6,106.7-1453.3,107c-515.6,0.3-1041.1-105.3-1556.7-105l-98-34c-457-159-889-382-1276-660
			c-69-49-131-93-137-97c-141.4-141.2-181-170-444-414c-258.3-276.3-290.7-319.9-446-475l-50-64c-148-190-339-499-470-761
			c-288-576-453-1167-509-1825c-13-156-13-606,0-771c75-942,414-1839,976-2584c156-207,253-319,446-515l177-180 M8280,11266
			c528-62,1036-216,1485-451c1773-924,2664-2921,2168-4860c-171-669-512-1293-996-1823c-331-362-771-693-1218-918
			c-1011-507-2200-590-3274-229c-898,301-1670,893-2189,1680c-129,194-176,276-269,461c-375,749-519,1608-411,2449
			c170,1325,951,2490,2118,3160c502,287,1122,484,1686,534c69,6,141,13,160,15C7625,11294,8154,11281,8280,11266z M9310,11743
			c-493.3,93.7-573.3,107-1453.3,107c-753.3,0-1042.5-31.7-1556.7-105"/>
		<path class="st2" d="M12028.8,10406.3L12588,9848c301-300,557-549,568-552c52-16,99,31,236,234c81,121,203,364,247,495
			c89,264,115,433,115,735c0,251-10,335-60,535c-59,234-170,487-300,682c-40,61-74,115-74,118c0,4,16,25,34,47c44,51,66,115,66,192
			c0,79-13,123-53,182c-105,156-330,187-470,64l-37-32l-62,44c-291,206-662,347-1027,388c-154,18-497,8-636-19
			c-291-55-526-145-775-294c-104-63-276-192-290-217c-30-56-40-45,540-625l550-550L12028.8,10406.3z"/>
		<path class="st2" d="M4466.7,11258.3L5000,11825c580,580,570,569,540,625c-14,25-186,154-290,217c-249,149-484,239-775,294
			c-137,26-483,37-632,20c-349-40-700-168-981-356l-114-76l-36,32c-56,50-117,72-197,73c-95,1-162-23-223-82c-69-65-94-120-100-213
			c-5-93,14-159,63-217c19-22,35-43,35-46s-32-54-71-113c-92-139-207-375-258-530c-148-446-148-945-1-1393c78-237,257-562,393-714
			c37-43,49-50,81-50c36,0,58,21,586,549l573.3,546.7L4466.7,11258.3z"/>
		<path class="st2" d="M8658,12563c-3,192-5,216-24,258c-26,57-88,120-146,151l-43,23l-625,2c-494,2-633,0-661-11
			c-60-21-108-56-144-104c-56-72-65-119-65-339"/>
		<polygon class="st0" points="9310,11743 9310,12046 9310,12350 8986,12350 8661,12350 6950,12350 6625,12350 6300,12350 
			6300,12048 6300,11745 		"/>
		<path class="st2" d="M6950,12543v-193h1711l-3,213"/>
		<path class="st0" d="M11711,10065l164,165l165,165l-880,880l-164-164c-97-97-168-161-175-157L11711,10065z"/>
		<path class="st0" d="M4789,10954c-7-4-78,60-175,157l-147.3,147.3l-873.3-866.7L3735,10230l164-165L4789,10954z"/>
		<path class="st3" d="M7720,10494c-80-35-130-111-130-199c0-122,93-215,215-215c234,0,298,324,83,414
			C7841,10514,7766,10514,7720,10494z"/>
		<path class="st3" d="M4445,7224c-196-101-148-389,69-411c76-8,134,15,186,74c44,50,55,87,48,169c-9,109-96,184-212,184
			C4500,7240,4462,7233,4445,7224z"/>
		<path class="st3" d="M10969,7217c-27-14-57-42-76-71c-29-42-33-57-33-112c0-80,16-119,67-165c52-47,101-63,171-56
			c183,19,258,248,121,372c-51,45-76,55-148,55C11030,7240,11000,7233,10969,7217z"/>
		<path class="st3" d="M7738,3966c-57-21-85-42-115-87c-35-53-43-140-18-204c28-75,117-135,200-135s180,68,205,145
			c19,58,9,146-23,194C7935,3957,7820,3997,7738,3966z"/>
		<path class="st3" d="M4573,8376c-23-20-28-32-28-69c0-28,6-52,17-64c9-10,557-243,1218-518l1201-500l-8-65
			c-47-379,132-722,462-888c169-84,419-109,590-58c27,9,50,14,50,13c1-1,227-244,504-539c473-506,506-539,569-570
			c59-29,76-33,147-33c64,0,90,5,129,24c64,32,113,82,143,149c22,48,25,64,21,140c-4,69-10,98-31,139c-19,37-164,198-478,535
			c-249,266-470,502-491,524l-40,41l20,39c60,119,90,297,73,442c-41,343-272,616-608,719c-77,23-105,26-228,26s-151-3-228-26
			c-203-62-369-185-477-353c-24-38-45-71-46-72c-1-2-538,219-1193,492c-782,326-1203,496-1226,496C4614,8400,4591,8391,4573,8376z"
			/>
	</g>
</g>
</svg>
