<?xml version="1.0"?>
<svg width="512" height="512" xmlns="http://www.w3.org/2000/svg" xmlns:svg="http://www.w3.org/2000/svg" enable-background="new 0 0 512 512" version="1.1" xml:space="preserve">
 <style type="text/css">.st0{fill:#EFA511;}
	.st1{fill:#C19744;}
	.st2{fill:#FFFFFF;}
	.st3{fill:#E2BF13;}
	.st4{fill:#BC3B6F;}
	.st5{fill:#FC153B;}</style>
 <style class="darkreader darkreader--sync" media="screen"/>
 <g class="layer">
  <title>Layer 1</title>
  <g id="Layer_1">
   <g id="svg_2" transform="translate(0 512) scale(0.1 -0.1)">
    <g id="svg_3">
     <path class="st0" d="m553,2470l-7,-113c-8,-132 4,-201 54,-312c64,-140 90,-208 120,-318c48,-173 73,-215 207,-358c65,-68 150,-170 190,-226c90,-126 139,-169 265,-234c83,-42 102,-49 113,-38c6,8 209,356 450,774c240,418 446,775 457,793l20,32l-935,0l-934,0z" id="svg_4"/>
     <path class="st1" d="m295,2630l104,0l-6,128c-7,155 9,230 86,400c28,62 71,181 97,265c25,84 60,178 77,211c18,34 77,107 140,175c60,63 154,176 209,249c114,153 170,201 308,269c52,25 96,47 98,49c5,3 -89,162 -102,173c-19,15 -50,20 -71,11c-47,-18 -234,-169 -347,-278c-381,-370 -624,-833 -707,-1347c-33,-204 -35,-248 -10,-278c20,-26 24,-27 124,-27z" id="svg_5"/>
     <path class="st1" d="m1548,4460c4,0 30,16 57,36c142,101 241,136 452,159c84,8 191,28 260,47c102,27 134,31 238,31c103,0 136,-4 237,-31c67,-18 177,-39 255,-47c224,-24 280,-42 429,-140c46,-30 86,-55 88,-55c13,0 96,162 96,187c0,48 -31,68 -232,147c-208,82 -450,136 -692,156c-400,32 -810,-41 -1181,-210c-86,-39 -105,-55 -105,-92c0,-27 84,-188 98,-188z" id="svg_6"/>
     <path class="st1" d="m1309,774c-141,70 -193,116 -310,272c-56,75 -149,187 -208,248c-63,66 -119,137 -138,172c-17,32 -52,127 -77,211c-26,84 -69,203 -97,265c-77,170 -93,245 -86,401l6,127l-104,0c-100,0 -104,-1 -124,-27c-25,-30 -23,-74 10,-281c98,-603 439,-1167 928,-1535c122,-92 143,-102 179,-85c22,11 130,175 120,182c-1,2 -46,24 -99,50z" id="svg_7"/>
     <path class="st0" d="m2125.9,3368.8c19.9,-0.1 39.8,-8 54.1,-25.8c12,-16 101,-164 197,-331c97,-167 179,-300 183,-295c5,4 209,357 455,783s453,785 461,798c14,21 12,24 -83,86c-136,88 -145,91 -428,126c-49,6 -142,24 -205,41c-114,29 -222,42 -270,32c-14,-2 -77,-18 -142,-34c-64,-16 -160,-34 -215,-40c-260,-30 -306,-44 -440,-139l-72,-51l111,-192c61,-106 151,-261 199,-345c86.1,-147.2 104,-192.9 78.6,-225.7l116.3,-187.5z" id="svg_8"/>
     <path class="st1" d="m2052.9,3318.5" id="svg_9"/>
     <path class="st0" d="m1939.3,3523c-11.8,3.2 -24,11.5 -38.3,25c-15,15 -111,171 -211,347c-101,176 -188,326 -195,333c-10,11 -31,4 -114,-38c-124,-62 -172,-104 -265,-235c-39,-55 -123,-155 -187,-222c-64,-68 -127,-144 -142,-171c-14,-26 -40,-97 -57,-157c-40,-141 -52,-177 -112,-310c-68,-151 -81,-215 -73,-341c4,-56 10,-107 14,-113c5,-8 251,-10 933,-9l926,3l-184,318c-117,202 -184,329 -184,346c0,6.9 1,13.4 2.9,19.5l-113.6,204.5z" id="svg_10"/>
     <path class="st1" d="m1840.5,490.6c-42.2,-1.8 -105.4,28.6 -205.8,94.9c-45,30 -84,55 -87,55c-13,0 -97,-162 -97,-188c0,-39 19,-54 135,-105c614,-271 1321,-271 1939,-1c116,51 136,67 136,107c0,29 -84,187 -98,187c-4,0 -30,-16 -57,-36c-142,-101 -241,-136 -452,-159c-84,-8 -192,-28 -260,-46c-171,-46 -295.3,-41.1 -478,-1c-71.3,15.6 -143,36 -159,40c-14,3.6 -26.8,11.2 -37.4,21.3c-89.7,-19.6 -199.1,-19 -278.6,30.7l-0.2,0.1z" id="svg_11"/>
     <path class="st0" d="m2127.7,572.3c12,10.2 25.2,16.9 36.3,16.9c11,0 88,-16 171,-36c195,-47 247,-47 441,0c83,19 200,40 260,46c190,18 238,34 379,130c73,49 75,52 62,73c-8,12 -215,371 -461,797s-450,779 -455,783c-4,5 -25,-22 -47,-60c-47,-80 -754,-1303 -836,-1446l-56,-97l72,-49c40,-26 100,-62 134,-80c43,-21.5 68.8,-41.8 78.5,-63.4l221.2,-14.5z" id="svg_12"/>
     <path class="st0" d="m4408.9,2578.7c2.8,12 6.4,16.6 11.1,21.3c21,21 43,28 100,32l35,3l8,90c12,153 0,209 -86,402c-26,56 -63,159 -83,229c-59,207 -72,230 -228,393c-56,58 -128,144 -161,191c-93,133 -156,190 -273,249c-56,28 -104,51 -107,51c-7,0 -8,-2 -460,-785c-235,-407 -438,-759 -451,-782l-25,-43l775,-2c745,-3 775,-4 795,-22c5.1,-4.6 9.4,-10.3 12.7,-16.7l137.2,-10.6z" id="svg_13"/>
     <path class="st1" d="m4467,4010c-125,168 -341,377 -519,503c-76,54 -95,60 -127,44c-21,-10 -128,-174 -119,-182c2,-2 34,-17 71,-34c95,-42 198,-113 247,-168c22,-26 72,-90 109,-142c38,-53 121,-152 185,-220c136,-145 166,-199 225,-401c22,-74 63,-187 91,-250c78,-171 94,-247 87,-402l-6,-128l104,0c101,0 104,1 125,27c19,24 20,35 15,93c-46,469 -207,884 -488,1260z" id="svg_14"/>
    </g>
    <path class="st2" d="m2280,5095c-231,-25 -452,-80 -666,-165c-179,-70 -242,-107 -279,-162c-28,-43 -33,-45 -86,-50c-71,-7 -94,-19 -237,-127c-570,-432 -939,-1093 -1004,-1797l-12,-131l28,-57l27,-56l-27,-56l-28,-57l12,-131c44,-484 240,-966 550,-1356c109,-137 308,-331 449,-437c149,-112 171,-124 242,-131c53,-5 57,-7 87,-51c25,-38 46,-54 122,-93c439,-221 1032,-301 1552,-207c315,56 696,202 761,291c38,54 52,123 36,185c-8,29 -223,411 -561,998c-302,523 -551,953 -553,958c-2,4 176,7 396,7l400,0l3,-247c3,-232 4,-251 25,-288c25,-47 74,-96 123,-121c48,-26 181,-26 227,-1c102,55 153,139 153,253c0,56 4,74 18,87c23,21 36,21 56,1c14,-13 16,-56 16,-314l0,-298l28,-53c68,-131 243,-158 347,-55c23,23 46,59 53,82c9,30 12,166 12,498l0,456l159,0c186,0 252,10 306,48c52,36 95,118 95,183c0,58 -25,257 -46,359c-127,630 -513,1219 -1041,1587c-79,55 -123,72 -183,73c-30,1 -39,7 -65,47c-36,56 -96,91 -275,162c-388,153 -814,211 -1220,166zm456,-145c242,-20 484,-74 692,-156c201,-79 232,-99 232,-147c0,-25 -83,-187 -96,-187c-2,0 -42,25 -88,55c-149,98 -205,116 -429,140c-78,8 -188,29 -255,47c-101,27 -134,31 -237,31c-104,0 -136,-4 -238,-31c-69,-19 -176,-39 -260,-47c-211,-23 -310,-58 -452,-159c-27,-20 -53,-36 -57,-36c-14,0 -98,161 -98,188c0,37 19,53 105,92c371,169 781,242 1181,210zm-801.9,-1425.3c19,-7.5 36.5,-2 59.9,16.3c45,36 37,70 -63,241c-48,84 -138,239 -199,345l-111,192l72,51c134,95 180,109 440,139c55,6 151,24 215,40c65,16 128,32 142,34c48,10 156,-3 270,-32c63,-17 156,-35 205,-41c283,-35 292,-38 428,-126c95,-62 97,-65 83,-86c-8,-13 -215,-372 -461,-798s-450,-779 -455,-783c-4,-5 -86,128 -183,295c-96,167 -185,315 -197,331c-41,51 -130,21 -130,-44c0,-17 67,-144 184,-346l184,-318l-926,-3c-682,-1 -928,1 -933,9c-4,6 -10,57 -14,113c-8,126 5,190 73,341c60,133 72,169 112,310c17,60 43,131 57,157c15,27 78,103 142,171c64,67 148,167 187,222c93,131 141,173 265,235c83,42 104,49 114,38c7,-7 94,-157 195,-333c100,-176 196,-332 211,-347c12.2,-11.5 22.9,-19.3 33.1,-23.3m-628.1,1024.3c13,-11 107,-170 102,-173c-2,-2 -46,-24 -98,-49c-138,-68 -194,-116 -308,-269c-55,-73 -149,-186 -209,-249c-63,-68 -122,-141 -140,-175c-17,-33 -52,-127 -77,-211c-26,-84 -69,-203 -97,-265c-77,-170 -93,-245 -86,-400l6,-128l-104,0c-100,0 -104,1 -124,27c-25,30 -23,74 10,278c83,514 326,977 707,1347c113,109 300,260 347,278c21,9 52,4 71,-11zm2642,-36c178,-126 394,-335 519,-503c281,-376 442,-791 488,-1260c5,-58 4,-69 -15,-93c-21,-26 -24,-27 -125,-27l-104,0l6,128c7,155 -9,231 -87,402c-28,63 -69,176 -91,250c-59,202 -89,256 -225,401c-64,68 -147,167 -185,220c-37,52 -87,116 -109,142c-49,55 -152,126 -247,168c-37,17 -69,32 -71,34c-9,8 98,172 119,182c32,16 51,10 127,-44zm-216,-324c117,-59 180,-116 273,-249c33,-47 105,-133 161,-191c156,-163 169,-186 228,-393c20,-70 57,-173 83,-229c86,-193 98,-249 86,-402l-8,-90l-35,-3c-57,-4 -79,-11 -100,-32c-19,-19 -20,-36 -20,-529l0,-510l-26,-20c-35,-27 -59,-26 -89,4l-25,24l0,301c0,276 -2,304 -19,338c-24,47 -56,77 -103,97c-70,29 -152,11 -208,-45c-42,-42 -60,-95 -60,-174c0,-68 -19,-110 -60,-131c-37,-19 -73,-19 -110,0c-55,29 -60,52 -60,294l0,220l299,3c278,3 300,4 320,22c29,26 29,86 0,112c-20,18 -50,19 -795,22l-775,2l25,43c13,23 216,375 451,782c452,783 453,785 460,785c3,0 51,-23 107,-51zm-3339,-1846c-7,-156 9,-231 86,-401c28,-62 71,-181 97,-265c25,-84 60,-179 77,-211c19,-35 75,-106 138,-172c59,-61 152,-173 208,-248c117,-156 169,-202 310,-272c53,-26 98,-48 99,-50c10,-7 -98,-171 -120,-182c-36,-17 -57,-7 -179,85c-489,368 -830,932 -928,1535c-33,207 -35,251 -10,281c20,26 24,27 124,27l104,0l-6,-127zm2009,95c-11,-18 -217,-375 -457,-793c-241,-418 -444,-766 -450,-774c-11,-11 -30,-4 -113,38c-126,65 -175,108 -265,234c-40,56 -125,158 -190,226c-134,143 -159,185 -207,358c-30,110 -56,178 -120,318c-50,111 -62,180 -54,312l7,113l934,0l935,0l-20,-32zm613,-838c246,-426 453,-785 461,-797c13,-21 11,-24 -62,-73c-141,-96 -189,-112 -379,-130c-60,-6 -177,-27 -260,-46c-194,-47 -246,-47 -441,0c-83,20 -160,36 -171,36c-25,0 -61,-34 -69,-66c-9,-33 23,-76 62,-86c16,-4 88,-22 159,-40c180,-45 307,-45 478,1c68,18 176,38 260,46c211,23 310,58 452,159c27,20 53,36 57,36c14,0 98,-158 98,-187c0,-40 -20,-56 -136,-107c-618,-270 -1325,-270 -1939,1c-116,51 -135,66 -135,105c0,26 84,188 97,188c3,0 42,-25 87,-55c150.1,-99.7 217.2,-119.4 255,-69c42,53 24,92 -62,135c-34,18 -94,54 -134,80l-72,49l56,97c82,143 789,1366 836,1446c22,38 43,65 47,60c5,-4 209,-357 455,-783z" id="svg_15"/>
    <path class="st3" d="m1906.5,586.9c9.8,-21.6 3.5,-44.4 -17.5,-70.9c-12.6,-16.2 -27.4,-25.8 -48.2,-26.7l0.2,-0.1c79.5,-49.7 188.8,-50.2 278.4,-30.6c-18.9,18 -30.2,43.5 -24.4,64.6c4.5,17.8 17.6,36.3 32.7,49.1l-221.2,14.6z" id="svg_16"/>
    <path class="st3" d="m4271.7,2589.3c15.4,-29.6 11.1,-73.9 -12.7,-95.3c-20,-18 -42,-19 -320,-22l-299,-3l0,-220c0,-242 5,-265 60,-294c37,-19 73,-19 110,0c41,21 60,63 60,131c0,79 18,132 60,174c56,56 138,74 208,45c47,-20 79,-50 103,-97c17,-34 19,-62 19,-338l0,-301l25,-24c30,-30 54,-31 89,-4l26,20l0,510c0,369.8 0.6,471.8 8.9,507.7l-137.2,10.6z" id="svg_17"/>
    <path class="st3" d="m2009.6,3556.3c-4.1,-5.3 -9.3,-10.3 -15.6,-15.3c-21.3,-16.5 -37.6,-22.6 -54.7,-18l113.5,-204.5c12.4,25.7 45,50.4 73.1,50.3l-116.3,187.5z" id="svg_18"/>
    <path class="st4" d="m2152,4470c-328,-118 -331,-578 -5,-700c82,-31 205,-26 285,12c223,104 284,397 121,579c-26,28 -63,62 -83,74c-87,55 -222,70 -318,35z" id="svg_19"/>
    <path class="st2" d="m2984,4401c-85,-39 -146,-150 -129,-238c33,-180 234,-251 369,-131c84,73 100,188 40,285c-56,90 -182,128 -280,84z" id="svg_20"/>
    <path class="st2" d="m1343,4036c-60,-19 -99,-51 -130,-104c-23,-39 -28,-59 -28,-112c1,-40 7,-76 17,-95c91,-170 330,-164 409,10c77,167 -93,358 -268,301z" id="svg_21"/>
    <path class="st2" d="m2500,3591c-74,-23 -117,-61 -149,-131c-36,-79 -23,-161 38,-231c84,-99 225,-106 320,-16c91,87 95,220 9,313c-56,61 -145,87 -218,65z" id="svg_22"/>
    <path class="st4" d="m1531,3464c-92,-33 -167,-100 -214,-189c-29,-56 -32,-67 -32,-160s2,-105 32,-166c39,-79 102,-140 181,-177c49,-23 70,-27 152,-27s103,4 152,27c79,37 142,98 181,177c30,61 32,73 32,166c0,121 -18,168 -96,250c-75,80 -140,108 -253,112c-65,2 -104,-1 -135,-13z" id="svg_23"/>
    <path class="st2" d="m795,3122c-81,-39 -125,-112 -125,-207c0,-69 25,-120 81,-168c84,-73 198,-71 283,4c112,99 100,273 -25,356c-55,36 -154,43 -214,15z" id="svg_24"/>
    <path class="st2" d="m3690,3970c-183,-32 -247,-264 -106,-387c99,-88 258,-65 333,48c32,48 42,136 23,194c-33,99 -143,163 -250,145z" id="svg_25"/>
    <path class="st4" d="m3868,3447c-103,-39 -182,-110 -227,-206c-22,-48 -26,-69 -26,-151s4,-103 27,-152c34,-74 107,-146 183,-184c54,-26 70,-29 155,-29c82,0 103,4 152,27c288,135 294,536 11,674c-47,23 -73,29 -147,31c-59,2 -104,-2 -128,-10z" id="svg_26"/>
    <path class="st2" d="m3153,3179c-78,-38 -123,-111 -123,-199c0,-239 315,-308 424,-93c22,43 20,137 -3,188c-20,45 -69,91 -118,112c-49,20 -131,16 -180,-8z" id="svg_27"/>
    <path class="st2" d="m1676,2428c-53,-14 -131,-91 -145,-143c-25,-91 -4,-171 60,-232c95,-90 236,-83 321,16c105,123 55,302 -99,357c-44,15 -83,16 -137,2z" id="svg_28"/>
    <path class="st2" d="m878,2319c-20,-6 -55,-27 -78,-47c-184,-157 -21,-450 211,-381c133,40 197,206 124,325c-54,87 -161,130 -257,103z" id="svg_29"/>
    <path class="st4" d="m1284,1932c-173,-62 -280,-244 -244,-419c25,-119 100,-217 208,-270c51,-25 68,-28 157,-28c88,0 107,3 157,27c235,110 289,418 106,601c-70,70 -142,100 -248,104c-63,3 -98,-1 -136,-15z" id="svg_30"/>
    <path class="st2" d="m2465,2011c-112,-52 -163,-182 -114,-291c25,-56 53,-86 101,-111c141,-72 309,18 325,176c17,168 -160,297 -312,226z" id="svg_31"/>
    <path class="st4" d="m2215,1463c-103,-37 -180,-110 -228,-213c-16,-35 -21,-66 -21,-140c-1,-82 3,-102 26,-152c35,-76 94,-138 170,-179c60,-33 68,-34 168,-34c94,0 111,3 160,27c109,54 195,169 209,280c21,170 -64,325 -217,396c-75,34 -194,41 -267,15z" id="svg_32"/>
    <path class="st2" d="m2945,1164c-143,-78 -174,-241 -68,-355c49,-53 91,-71 162,-71c86,0 163,49 201,128c31,63 25,155 -13,213c-44,66 -97,95 -181,99c-51,2 -79,-2 -101,-14z" id="svg_33"/>
    <path class="st5" d="m2607,1857c42,-42 9,-117 -51,-117c-33,0 -57,18 -69,53c-9,23 17,74 40,80c24,7 65,-2 80,-16z" id="svg_34"/>
    <path class="st5" d="m3089,1004c12,-15 15.5,-34.1 15.5,-44.1c0,-10 -3.5,-28.9 -15.5,-43.9c-41,-53 -119,-21 -119,48c0,64 79,90 119,40z" id="svg_35"/>
    <path class="st5" d="m1792,2263c18,-16 24,-68 10,-89s-52,-34 -77,-28c-53,13 -69,79 -29,118c20,21 73,20 96,-1z" id="svg_36"/>
    <path class="st5" d="m992,2153c28,-25 24,-77 -9,-103c-32,-25 -69,-20 -96,13c-22,25 -16,75 10,95c24,17 73,15 95,-5z" id="svg_37"/>
    <path class="st5" d="m937,2968c46,-43 16,-118 -47,-118c-62,0 -92,71 -48,117c27,29 65,29 95,1z" id="svg_38"/>
    <path class="st5" d="m2620,3401c23,-58 -36,-116 -93,-90c-33,15 -49,58 -33,90c27,55 103,55 126,0z" id="svg_39"/>
    <path class="st5" d="m1455,3870c26,-29 24,-79 -4,-102c-47,-38 -114,-8 -114,50c0,42 28,72 68,72c19,0 39,-8 50,-20z" id="svg_40"/>
    <path class="st5" d="m3118,4253c32,-27 37,-64 12,-96c-41,-52 -120,-27 -120,38c0,64 62,97 108,58z" id="svg_41"/>
    <path class="st5" d="m3297,3028c46,-43 16,-118 -47,-118c-62,0 -92,71 -48,117c27,29 65,29 95,1z" id="svg_42"/>
    <path class="st5" d="m3777,3798c29,-27 29,-57 2,-92c-40,-50 -119,-21 -119,44c0,62 71,92 117,48z" id="svg_43"/>
   </g>
  </g>
 </g>
</svg>