<?xml version="1.0" encoding="utf-8"?>
<!-- Generator: Adobe Illustrator 22.1.0, SVG Export Plug-In . SVG Version: 6.00 Build 0)  -->
<svg version="1.1" xmlns="http://www.w3.org/2000/svg" xmlns:xlink="http://www.w3.org/1999/xlink" x="0px" y="0px"
	 viewBox="0 0 512 512" style="enable-background:new 0 0 512 512;" xml:space="preserve">
<style type="text/css">
	.st0{fill:#FFFFFF;}
</style>
<g id="Layer_2">
	<rect width="512" height="512"/>
</g>
<g id="Layer_1">
	<g transform="translate(0.000000,512.000000) scale(0.100000,-0.100000)">
		<path class="st0" d="M665,5015l-25-24V2560V129l25-24l24-25h1871h1871l24,25l25,24v2431v2431l-25,24l-24,25H2560H689L665,5015z
			 M1840,4800v-80h-415h-416l-24-25l-25-24V2520V369l25-24l24-25h1353h1353l222,223l223,222v1953v1953l-25,24l-24,25h-416h-415v80
			v80h520h520V2560V240H2560H800v2320v2320h520h520V4800z M3120,4705c0-173,0-176-25-200l-24-25h-511h-511l-24,25
			c-25,24-25,27-25,200v175h560h560V4705z M1840,4544c0-77,88-189,166-212c59-17,1049-17,1108,0c78,23,166,135,166,212
			c0,14,34,16,360,16h360V2760V960h-215c-288,0-265,23-265-265V480H2320H1120v2040v2040h360C1806,4560,1840,4558,1840,4544z
			 M3960,797c0-1-63-65-140-142l-140-140v143v142h140C3897,800,3960,799,3960,797z"/>
		<path class="st0" d="M1385,3975l-25-24v-351v-351l25-24l24-25h351h351l24,25l25,24v351v351l-25,24l-24,25h-351h-351L1385,3975z
			 M2000,3600v-240h-240h-240v240v240h240h240V3600z"/>
		<path class="st0" d="M2345,3975c-16-15-25-36-25-55s9-40,25-55l24-25h671h671l24,25c33,32,33,78,0,110l-24,25h-671h-671L2345,3975
			z"/>
		<path class="st0" d="M2345,3655c-16-15-25-36-25-55s9-40,25-55l24-25h671h671l24,25c33,32,33,78,0,110l-24,25h-671h-671L2345,3655
			z"/>
		<path class="st0" d="M2345,3335c-16-15-25-36-25-55s9-40,25-55l24-25h351h351l24,25c16,15,25,36,25,55s-9,40-25,55l-24,25h-351
			h-351L2345,3335z"/>
		<path class="st0" d="M3225,3335c-16-15-25-36-25-55s9-40,25-55c21-22,33-25,95-25s74,3,95,25c16,15,25,36,25,55s-9,40-25,55
			c-21,22-33,25-95,25S3246,3357,3225,3335z"/>
		<path class="st0" d="M1385,3015l-25-24v-351v-351l25-24l24-25h351h351l24,25l25,24v351v351l-25,24l-24,25h-351h-351L1385,3015z
			 M2000,2640v-240h-240h-240v240v240h240h240V2640z"/>
		<path class="st0" d="M2345,3015c-16-15-25-36-25-55s9-40,25-55l24-25h671h671l24,25c33,32,33,78,0,110l-24,25h-671h-671L2345,3015
			z"/>
		<path class="st0" d="M2345,2695c-16-15-25-36-25-55s9-40,25-55l24-25h671h671l24,25c33,32,33,78,0,110l-24,25h-671h-671L2345,2695
			z"/>
		<path class="st0" d="M2345,2375c-16-15-25-36-25-55s9-40,25-55l24-25h351h351l24,25c16,15,25,36,25,55s-9,40-25,55l-24,25h-351
			h-351L2345,2375z"/>
		<path class="st0" d="M3225,2375c-16-15-25-36-25-55s9-40,25-55c21-22,33-25,95-25s74,3,95,25c16,15,25,36,25,55s-9,40-25,55
			c-21,22-33,25-95,25S3246,2397,3225,2375z"/>
		<path class="st0" d="M1385,2055l-25-24v-351v-351l25-24l24-25h351h351l24,25l25,24v351v351l-25,24l-24,25h-351h-351L1385,2055z
			 M2000,1680v-240h-240h-240v240v240h240h240V1680z"/>
		<path class="st0" d="M2345,2055c-16-15-25-36-25-55s9-40,25-55l24-25h671h671l24,25c33,32,33,78,0,110l-24,25h-671h-671L2345,2055
			z"/>
		<path class="st0" d="M2345,1735c-16-15-25-36-25-55s9-40,25-55l24-25h671h671l24,25c33,32,33,78,0,110l-24,25h-671h-671L2345,1735
			z"/>
		<path class="st0" d="M2345,1415c-16-15-25-36-25-55s9-40,25-55l24-25h351h351l24,25c16,15,25,36,25,55s-9,40-25,55l-24,25h-351
			h-351L2345,1415z"/>
		<path class="st0" d="M3225,1415c-16-15-25-36-25-55s9-40,25-55c21-22,33-25,95-25s74,3,95,25c16,15,25,36,25,55s-9,40-25,55
			c-21,22-33,25-95,25S3246,1437,3225,1415z"/>
	</g>
</g>
</svg>
